<svg width="400" height="70.5288" viewBox="0 0 794 140" fill="none" xmlns="http://www.w3.org/2000/svg">
<rect width="24" height="140" fill="#883CC5"/>
<rect width="69" height="25" fill="#663F85"/>
<rect x="69" y="25" width="25" height="45" fill="#785097"/>
<rect y="48" width="81" height="22" fill="#8B4EBB"/>
<rect x="40" y="70" width="29" height="70" fill="#A45BDD"/>
<rect x="40" y="114" width="54" height="26" fill="#9749D3"/>
<rect x="113" width="24" height="118" fill="#9250C6"/>
<rect x="181" width="27" height="118" fill="#892FD0"/>
<rect x="113" y="92" width="68" height="26" fill="#A45BDD"/>
<rect x="226" width="24" height="70" fill="#B969F8"/>
<rect x="226" width="70" height="25" fill="#A45BDD"/>
<rect x="273" y="25" width="23" height="67" fill="#9B36EB"/>
<rect x="387" width="24" height="140" fill="#BF6FFE"/>
<rect x="387" width="90" height="25" fill="#8A47BE"/>
<rect x="452" y="25" width="25" height="23" fill="#A45BDD"/>
<rect x="387" y="114" width="90" height="26" fill="#B26CEA"/>
<rect x="499" width="46" height="25" fill="#9D6CC4"/>
<rect x="499" y="25" width="23" height="45" fill="#912EDF"/>
<rect x="522" y="70" width="47" height="22" fill="#B65DFC"/>
<rect x="545" y="25" width="24" height="45" fill="#C57EFD"/>
<rect x="590" width="23" height="114" fill="#A672CF"/>
<rect x="590" width="69" height="25" fill="#8024C8"/>
<rect x="659" y="25" width="24" height="89" fill="#A230FB"/>
<rect x="590" y="92" width="93" height="26" fill="#9039D3"/>
<rect x="702" width="26" height="114" fill="#BC66FF"/>
<rect x="702" width="71" height="25" fill="#7C3EAC"/>
<rect x="702" y="92" width="92" height="26" fill="#B26AEB"/>
<rect x="715" y="48" width="58" height="22" fill="#A45BDD"/>
</svg>
