<svg width="796" height="98" viewBox="0 0 796 98" fill="none" xmlns="http://www.w3.org/2000/svg">
<rect width="18" height="50" fill="#28B725"/>
<rect width="64" height="18" fill="#4BF147"/>
<rect x="47" y="46" width="17" height="51" fill="#21B01E"/>
<rect y="80" width="64" height="17" fill="#5CDC5A"/>
<rect x="79" width="17" height="80" fill="#45E042"/>
<rect x="127" width="17" height="80" fill="#22DE1F"/>
<rect x="79" y="63" width="65" height="17" fill="#26C522"/>
<rect x="159" width="16" height="80" fill="#3FD93C"/>
<rect x="159" width="32" height="18" fill="#62FF5F"/>
<rect x="159" y="32" width="49" height="18" fill="#32CD2F"/>
<rect x="159" y="63" width="49" height="17" fill="#1BD717"/>
<rect x="191" y="15" width="17" height="65" fill="#20C71D"/>
<rect x="223" width="17" height="80" fill="#48D545"/>
<rect x="286" width="17" height="48" fill="#30C52D"/>
<rect x="223" width="80" height="18" fill="#63F460"/>
<rect x="253" width="19" height="35" fill="#36D233"/>
<rect x="318" y="48" width="50" height="18" fill="#3CD539"/>
<rect x="333" width="18" height="48" fill="#42EB3F"/>
<rect x="318" width="50" height="18" fill="#21BF1D"/>
<rect x="381" width="67" height="18" fill="#29C026"/>
<rect x="397" y="18" width="17" height="62" fill="#41E13E"/>
<rect x="508" width="18" height="98" fill="#2CCA28"/>
<rect x="508" width="65" height="18" fill="#1AAA17"/>
<rect x="555" width="18" height="34" fill="#33D130"/>
<rect x="508" y="80" width="65" height="18" fill="#3CCC39"/>
<rect x="588" width="16" height="49" fill="#45CE42"/>
<rect x="604" y="49" width="33" height="16" fill="#5BCA58"/>
<rect x="588" width="33" height="17" fill="#3EA83B"/>
<rect x="621" y="17" width="16" height="32" fill="#40BF3D"/>
<rect x="652" width="16" height="82" fill="#43B641"/>
<rect x="700" y="17" width="16" height="65" fill="#34C731"/>
<rect x="652" width="48" height="17" fill="#42EC3F"/>
<rect x="652" y="65" width="64" height="17" fill="#09B406"/>
<rect x="731" width="50" height="17" fill="#1FEC1B"/>
<rect x="731" y="33" width="50" height="16" fill="#21C41E"/>
<rect x="731" y="65" width="65" height="17" fill="#17DC13"/>
<rect x="731" width="18" height="80" fill="#27CE24"/>
<rect x="18" y="46" width="29" height="11" fill="#63F460"/>
</svg>
